<svg width="278" height="232" viewBox="0 0 278 232" fill="none" xmlns="http://www.w3.org/2000/svg">
<path d="M27.8 231.978C20.155 231.978 13.6104 229.454 8.16625 224.406C2.72208 219.359 0 213.291 0 206.202V0L23.2825 21.5868L46.2175 0L69.5 21.5868L92.7825 0L115.717 21.5868L139 0L162.282 21.5868L185.217 0L208.5 21.5868L231.782 0L254.717 21.5868L278 0V206.202C278 213.291 275.278 219.359 269.834 224.406C264.39 229.454 257.845 231.978 250.2 231.978H27.8ZM27.8 206.202H125.1V128.877H27.8V206.202ZM152.9 206.202H250.2V180.427H152.9V206.202ZM152.9 154.652H250.2V128.877H152.9V154.652ZM27.8 103.101H250.2V64.4383H27.8V103.101Z" fill="#533131"/>
</svg>
