<svg width="278" height="232" viewBox="0 0 233 254" fill="none" xmlns="http://www.w3.org/2000/svg">
<g clip-path="url(#clip0_784_1128)">
<path d="M-6.63847e-05 183.09C0.0180315 184.216 0.474025 185.29 1.27119 186.086C2.06836 186.881 3.14399 187.335 4.26993 187.35H54.6699C55.2024 187.367 55.7326 187.274 56.228 187.078C56.7233 186.882 57.1732 186.587 57.5499 186.21L57.6999 186.08L57.7799 185.99C58.1589 185.61 58.4564 185.157 58.6542 184.659C58.8519 184.16 58.9458 183.626 58.9299 183.09V160.24C58.9299 157.48 58.9899 154.72 58.9299 151.96C58.7877 144.67 55.9892 137.683 51.0599 132.31C48.99 130.073 46.5721 128.185 43.8999 126.72C46.9797 124.395 49.4896 121.399 51.2396 117.96C52.9895 114.521 53.9335 110.728 53.9999 106.87C53.9999 106.54 53.9299 106.22 53.9099 105.87C53.6811 101.033 52.0453 96.3681 49.203 92.4476C46.3608 88.5271 42.4359 85.5216 37.9099 83.8C33.1744 82.0845 28.0266 81.8626 23.161 83.1644C18.2954 84.4662 13.9462 87.229 10.6999 91.08C7.45536 94.9941 5.49101 99.8101 5.0725 104.877C4.654 109.944 5.80153 115.017 8.35993 119.41C10.0871 122.272 12.393 124.741 15.1299 126.66C14.0309 127.257 12.9719 127.925 11.9599 128.66C6.17324 132.946 2.15121 139.197 0.649934 146.24C0.0739204 149.813 -0.143827 153.434 -6.63847e-05 157.05V183.09ZM31.2299 159.23C30.6499 160.743 30.0633 162.253 29.4699 163.76C29.0699 162.76 28.6799 161.76 28.2899 160.76L26.1799 155.36C25.8491 154.209 25.4277 153.085 24.9199 152L25.9199 148.16C26.9533 144.387 27.9866 140.62 29.0199 136.86C29.1499 136.38 29.2799 135.86 29.4199 135.41C30.4599 139.223 31.5033 143.03 32.5499 146.83C32.9499 148.31 33.3599 149.83 33.7599 151.25C33.8199 151.46 33.8799 151.67 33.9299 151.88C33.5999 152.54 33.3699 153.63 33.1799 154.11L31.2299 159.23ZM33.9999 152C34.0499 152.17 34.0799 152.35 34.1399 152.51C34.4599 153.32 33.9299 152.63 33.9999 152ZM15.7299 98.63C17.489 95.7101 20.1346 93.4284 23.2812 92.1173C26.4279 90.8062 29.9109 90.5344 33.2229 91.3414C36.5348 92.1484 39.5024 93.9921 41.6932 96.6037C43.8839 99.2153 45.1834 102.458 45.4021 105.86C45.6207 109.262 44.7473 112.645 42.9089 115.515C41.0706 118.386 38.3634 120.594 35.1821 121.819C32.0008 123.043 28.5116 123.22 25.223 122.322C21.9344 121.425 19.0184 119.501 16.8999 116.83C14.8939 114.267 13.7088 111.159 13.5 107.911C13.2913 104.663 14.0685 101.428 15.7299 98.63ZM12.7299 139.74C15.6401 135.93 19.7765 133.242 24.4399 132.13L20.6899 145.81C20.1599 147.81 18.6899 150.81 19.1599 152.93C19.7599 155.5 21.1599 158.1 22.1599 160.56C23.3399 163.6 24.5233 166.637 25.7099 169.67C25.985 170.402 26.5351 170.998 27.243 171.331C27.951 171.663 28.7608 171.706 29.4999 171.45C30.239 171.706 31.0489 171.663 31.7568 171.331C32.4648 170.998 33.0149 170.402 33.2899 169.67L36.2899 162.05C37.4299 159.11 38.8999 156.14 39.7699 153.11C40.2899 151.3 39.1299 148.83 38.6599 147.11L35.4799 135.53C35.1699 134.38 34.8499 133.23 34.5399 132.08C37.7768 132.825 40.7771 134.365 43.2699 136.56C45.51 138.542 47.3079 140.973 48.5467 143.695C49.7854 146.417 50.4373 149.369 50.4599 152.36C50.4599 154.67 50.4599 156.98 50.4599 159.29V178.83H8.52993V162.54C8.52993 154.63 7.64993 146.48 12.7299 139.74Z" fill="#533131"/>
<path d="M184.19 91.08C180.945 94.9941 178.981 99.8101 178.563 104.877C178.144 109.944 179.292 115.017 181.85 119.41C183.58 122.273 185.889 124.742 188.63 126.66C187.53 127.255 186.471 127.923 185.46 128.66C179.672 132.937 175.646 139.182 174.14 146.22C173.567 149.793 173.353 153.414 173.5 157.03V183.03C173.516 184.155 173.969 185.23 174.765 186.025C175.56 186.821 176.635 187.275 177.76 187.29H228.16C228.694 187.307 229.226 187.215 229.723 187.019C230.22 186.823 230.671 186.527 231.05 186.15C231.099 186.109 231.146 186.066 231.19 186.02L231.27 185.93C231.651 185.551 231.95 185.099 232.15 184.6C232.349 184.101 232.445 183.567 232.43 183.03V160.24C232.43 157.48 232.43 154.72 232.43 151.96C232.288 144.67 229.489 137.683 224.56 132.31C222.49 130.073 220.072 128.186 217.4 126.72C220.483 124.397 222.997 121.402 224.751 117.963C226.504 114.524 227.451 110.73 227.52 106.87C227.52 106.54 227.45 106.22 227.43 105.87C227.201 101.033 225.565 96.3681 222.723 92.4476C219.881 88.5272 215.956 85.5217 211.43 83.8C206.69 82.0777 201.536 81.8524 196.665 83.1544C191.793 84.4564 187.438 87.2229 184.19 91.08ZM204.73 159.23L203 163.76L201.82 160.76C201.153 158.96 200.45 157.16 199.71 155.36C199.382 154.217 198.961 153.104 198.45 152.03C198.81 150.75 199.16 149.47 199.51 148.19L202.6 136.89L203 135.44C204.047 139.253 205.09 143.06 206.13 146.86C206.54 148.34 206.94 149.86 207.34 151.28L207.52 151.91C207.227 152.639 206.973 153.384 206.76 154.14L204.73 159.23ZM207.5 152C207.55 152.17 207.58 152.35 207.64 152.51C208 153.32 207.43 152.63 207.5 152ZM223.9 152.38C223.9 154.69 223.9 157 223.9 159.31V178.85H182V162.54C182 154.63 181.12 146.48 186.19 139.74C189.1 135.93 193.237 133.242 197.9 132.13C196.66 136.69 195.413 141.25 194.16 145.81C193.62 147.81 192.16 150.81 192.62 152.93C193.22 155.5 194.62 158.1 195.62 160.56C196.8 163.6 197.983 166.637 199.17 169.67C199.632 170.228 200.211 170.677 200.866 170.985C201.521 171.293 202.236 171.453 202.96 171.453C203.684 171.453 204.399 171.293 205.054 170.985C205.709 170.677 206.288 170.228 206.75 169.67L209.75 162.05C210.89 159.11 212.37 156.14 213.24 153.11C213.75 151.3 212.59 148.83 212.12 147.11L208.94 135.53C208.63 134.38 208.31 133.23 208 132.08C211.238 132.822 214.239 134.362 216.73 136.56C218.967 138.541 220.761 140.971 221.996 143.692C223.232 146.412 223.88 149.362 223.9 152.35V152.38ZM219 106.87C218.993 110.15 217.978 113.348 216.093 116.032C214.207 118.716 211.543 120.756 208.46 121.875C205.376 122.994 202.024 123.139 198.856 122.289C195.688 121.44 192.857 119.637 190.748 117.126C188.639 114.614 187.352 111.515 187.062 108.248C186.773 104.98 187.495 101.703 189.13 98.8598C190.765 96.0165 193.234 93.7442 196.203 92.3509C199.172 90.9575 202.498 90.5104 205.73 91.07C209.439 91.7401 212.796 93.6868 215.219 96.5726C217.643 99.4585 218.981 103.101 219 106.87Z" fill="#533131"/>
<path d="M87.64 212C87.0653 215.586 86.8509 219.221 87 222.85V248.85C87.0129 249.977 87.4656 251.054 88.2615 251.852C89.0573 252.649 90.1333 253.104 91.26 253.12H141.66C142.193 253.132 142.724 253.038 143.22 252.842C143.717 252.646 144.169 252.353 144.55 251.98L144.69 251.84L144.77 251.76C145.153 251.38 145.453 250.926 145.652 250.426C145.852 249.925 145.947 249.389 145.93 248.85V226C145.93 223.24 145.93 220.47 145.93 217.72C145.787 210.429 142.992 203.44 138.07 198.06C135.998 195.825 133.581 193.938 130.91 192.47C133.984 190.15 136.49 187.16 138.238 183.728C139.987 180.296 140.931 176.511 141 172.66C141 172.33 140.93 172.01 140.91 171.66C140.68 166.823 139.044 162.159 136.202 158.239C133.359 154.319 129.435 151.313 124.91 149.59C120.152 147.858 114.974 147.639 110.087 148.964C105.2 150.289 100.842 153.093 97.6101 156.991C94.3785 160.89 92.4315 165.692 92.0358 170.74C91.6402 175.789 92.8152 180.836 95.4 185.19C97.1326 188.048 99.4375 190.516 102.17 192.44C101.067 193.031 100.008 193.699 99 194.44C93.1932 198.707 89.1516 204.954 87.64 212ZM118.23 225L116.46 229.53L115.28 226.53L113.18 221.12C112.844 219.98 112.423 218.867 111.92 217.79L112.92 213.95L116.01 202.66C116.15 202.17 116.28 201.66 116.41 201.2C117.463 205.013 118.507 208.823 119.54 212.63L120.76 217.05C120.76 217.25 120.87 217.46 120.93 217.67C120.635 218.402 120.382 219.15 120.17 219.91L118.23 225ZM121 217.74C121 217.92 121.09 218.09 121.15 218.26C121.45 219.12 120.93 218.42 121 217.76V217.74ZM102.72 164.41C104.479 161.49 107.125 159.208 110.271 157.897C113.418 156.586 116.901 156.314 120.213 157.121C123.525 157.928 126.492 159.772 128.683 162.384C130.874 164.995 132.173 168.238 132.392 171.64C132.611 175.042 131.737 178.425 129.899 181.295C128.061 184.166 125.354 186.374 122.172 187.599C118.991 188.823 115.502 189 112.213 188.102C108.924 187.205 106.008 185.281 103.89 182.61C101.886 180.051 100.702 176.945 100.493 173.701C100.284 170.457 101.06 167.225 102.72 164.43V164.41ZM111.44 197.91L107.69 211.59C107.15 213.59 105.69 216.59 106.15 218.71C106.75 221.28 108.15 223.88 109.15 226.33L112.7 235.45C112.987 236.173 113.539 236.759 114.243 237.09C114.947 237.42 115.75 237.471 116.49 237.23C117.229 237.486 118.039 237.443 118.747 237.111C119.455 236.778 120.005 236.182 120.28 235.45L123.28 227.83C124.43 224.89 125.9 221.91 126.77 218.88C127.28 217.07 126.12 214.6 125.65 212.88L122.48 201.3C122.16 200.15 121.85 199 121.48 197.85C124.717 198.595 127.717 200.135 130.21 202.33C132.454 204.311 134.255 206.743 135.496 209.467C136.737 212.191 137.389 215.147 137.41 218.14C137.41 220.44 137.41 222.75 137.41 225.06V244.61H95.53V228.33C95.53 220.43 94.65 212.27 99.72 205.54C102.626 201.722 106.769 199.032 111.44 197.93V197.91Z" fill="#533131"/>
<path d="M103.16 44.33C102.064 44.9273 101.009 45.5953 100 46.33C94.2041 50.6088 90.1769 56.863 88.6801 63.91C88.094 67.4851 87.8662 71.1097 88.0001 74.73V100.73C88.0157 101.863 88.4747 102.944 89.2786 103.743C90.0825 104.541 91.1672 104.992 92.3001 105H142.7C143.234 105.017 143.766 104.925 144.263 104.729C144.76 104.532 145.211 104.237 145.59 103.86C145.639 103.819 145.686 103.776 145.73 103.73L145.81 103.64C146.191 103.261 146.49 102.809 146.69 102.31C146.889 101.811 146.985 101.277 146.97 100.74V77.91C146.97 75.15 147.02 72.39 146.97 69.63C146.82 62.3457 144.018 55.3661 139.09 50C137.02 47.7632 134.602 45.8755 131.93 44.41C135.015 42.088 137.529 39.0934 139.283 35.6539C141.036 32.2143 141.983 28.4202 142.05 24.56C142.05 24.23 141.98 23.91 141.96 23.56C141.727 18.7173 140.084 14.0482 137.232 10.1271C134.381 6.20595 130.445 3.20384 125.91 1.49C121.153 -0.243408 115.976 -0.463386 111.088 0.860203C106.201 2.18379 101.842 4.9862 98.6097 8.88345C95.3772 12.7807 93.4287 17.5822 93.0313 22.63C92.634 27.6778 93.8071 32.7249 96.3901 37.08C98.1201 39.9396 100.425 42.4085 103.16 44.33ZM119.27 76.9L117.5 81.43L116.32 78.43L114.22 73.03C113.907 71.875 113.499 70.7478 113 69.66C113.35 68.38 113.71 67.1 114.06 65.82L117.15 54.52C117.29 54.04 117.42 53.52 117.55 53.07L120.68 64.49C121.09 65.97 121.49 67.49 121.89 68.91L122.07 69.54C121.777 70.2692 121.523 71.0136 121.31 71.77L119.27 76.9ZM122 69.64C122 69.81 122.08 69.99 122.14 70.15C122.49 71 122 70.3 122 69.64ZM138.4 70.03C138.4 72.33 138.4 74.64 138.4 76.95V96.49H96.5701V80.21C96.5701 72.3 95.6901 64.15 100.76 57.41C103.672 53.5977 107.813 50.9092 112.48 49.8C111.23 54.36 109.97 58.93 108.73 63.49C108.19 65.44 106.73 68.49 107.19 70.6C107.79 73.17 109.19 75.77 110.19 78.23L113.74 87.35C114.017 88.0804 114.568 88.6739 115.276 89.0045C115.983 89.335 116.792 89.3765 117.53 89.12C118.268 89.3765 119.077 89.335 119.784 89.0045C120.492 88.6739 121.043 88.0804 121.32 87.35L124.32 79.72C125.46 76.79 126.94 73.81 127.8 70.78C128.32 68.97 127.16 66.5 126.69 64.78L123.52 53.2C123.2 52.05 122.88 50.9 122.57 49.75C125.808 50.4924 128.809 52.0324 131.3 54.23C133.528 56.2119 135.315 58.6399 136.545 61.3565C137.775 64.0732 138.421 67.0179 138.44 70L138.4 70.03ZM103.76 16.3C105.081 14.1213 106.903 12.2895 109.075 10.9571C111.247 9.6248 113.706 8.83039 116.246 8.64003C118.787 8.44966 121.337 8.86885 123.683 9.8627C126.029 10.8566 128.104 12.3963 129.735 14.3539C131.365 16.3115 132.505 18.6303 133.059 21.1173C133.613 23.6043 133.565 26.1876 132.919 28.6522C132.273 31.1169 131.047 33.3916 129.345 35.2871C127.642 37.1827 125.512 38.6442 123.13 39.55C120.015 40.7348 116.608 40.9174 113.385 40.0724C110.161 39.2275 107.282 37.397 105.149 34.8367C103.016 32.2764 101.735 29.1139 101.486 25.7907C101.237 22.4676 102.032 19.1496 103.76 16.3Z" fill="#533131"/>
<path d="M77.9998 238.29C81.7698 239.77 83.4098 233.69 79.6798 232.22C60.6197 224.703 44.1818 211.762 32.3998 195C30.0898 191.72 24.6398 194.85 26.9698 198.18C39.6605 216.282 57.4123 230.235 77.9998 238.29Z" fill="#533131"/>
<path d="M157 238.29C177.879 230.125 195.834 215.893 208.55 197.43C210.85 194.09 205.4 190.95 203.11 194.26C191.307 211.387 174.674 224.615 155.33 232.26C151.56 233.69 153.18 239.77 157 238.29Z" fill="#533131"/>
<path d="M144.65 35.3099C168.077 41.7648 188.54 56.1454 202.55 75.9999C204.86 79.2899 210.32 76.1499 207.98 72.8299C193.104 51.5886 171.307 36.1791 146.32 29.2399C142.41 28.1699 140.75 34.2399 144.65 35.3099Z" fill="#533131"/>
<path d="M32.3998 76C45.7475 57.0493 64.9967 43.0538 87.1398 36.2C90.9998 35 89.3498 29 85.4698 30.16C61.7927 37.5222 41.2281 52.5333 26.9998 72.84C24.6398 76.16 30.0898 79.31 32.3998 76Z" fill="#533131"/>
</g>
<defs>
<clipPath id="clip0_784_1128">
<rect width="278" height="232" fill="white"/>
</clipPath>
</defs>
</svg>
