<svg width="759" height="759" viewBox="0 0 759 759" fill="none" xmlns="http://www.w3.org/2000/svg">
<path d="M714.856 425.131C692.511 484.986 646.85 549.774 582.593 568.947C485.441 597.94 473.904 676.208 300.002 668.952C274.61 668.005 249.395 664.305 224.8 657.917C212.775 654.76 200.966 650.83 189.446 646.152C87.8466 605.014 34.9139 514.45 30.451 419.682C24.637 295.054 111.603 235.654 168.118 200.862C224.634 166.069 292.746 31.3013 463.764 37.1C489.878 37.872 515.815 41.6566 541.061 48.3788C598.608 63.9535 657.097 98.4728 691.085 148.764C693.635 152.539 696.074 156.405 698.401 160.362C743.896 237.537 745.338 343.524 714.856 425.131Z" fill="#FFC100"/>
<path opacity="0.7" d="M714.856 425.131C692.511 484.986 646.85 549.774 582.593 568.947C485.441 597.94 473.904 676.208 300.002 668.952C274.61 668.005 249.395 664.305 224.8 657.917C212.775 654.76 200.966 650.83 189.446 646.152C87.8466 605.014 34.9139 514.45 30.451 419.682C24.637 295.054 111.603 235.654 168.118 200.862C224.634 166.069 292.746 31.3013 463.764 37.1C489.878 37.872 515.815 41.6566 541.061 48.3788C598.608 63.9535 657.097 98.4728 691.085 148.764C693.635 152.539 696.074 156.405 698.401 160.362C743.896 237.537 745.338 343.524 714.856 425.131Z" fill="white"/>
<path d="M380.259 479.263C362.605 439.188 365.216 373.549 373.398 368.084C382.4 362.088 396.654 392.858 410.923 383.856C425.192 374.855 434.938 355.333 422.93 324.563C410.923 293.793 395.166 314.059 383.902 321.527C372.639 328.996 363.637 322.286 365.899 295.266C367.554 275.335 375.326 238.705 379.303 220.884C381.094 221.658 382.885 222.402 384.646 223.267C349.383 206.751 310.355 201.499 293.855 206.751C277.354 212.004 280.344 213.506 288.587 233.013C305.816 273.71 240.588 287.661 221.795 256.314C210.547 237.552 227.093 227.017 222.585 213.506C218.076 199.996 134.783 215.753 124.279 221.764C124.279 221.764 144.529 282.484 141.538 304.313C138.548 326.142 128.028 335.842 112.271 320.07C96.5146 304.298 76.2493 318.552 75.4903 344.844C74.7313 371.136 79.2398 392.114 97.2584 386.118C115.277 380.122 129.531 358.354 135.527 386.118C141.523 413.882 130.973 449.874 125.023 475.422C125.023 475.422 172.308 495.687 194.061 494.185C215.814 492.682 229.34 491.938 222.585 478.428C215.829 464.918 204.566 455.916 212.824 440.903C221.082 425.89 254.098 427.393 271.358 431.142C288.618 434.892 296.132 447.658 290.879 461.912C285.627 476.166 276.61 490.435 293.126 493.426C308.685 496.264 348.26 489.752 387.242 477.062C384.935 477.805 382.536 478.534 380.259 479.263Z" stroke="#263238" stroke-miterlimit="10"/>
<path d="M394.407 474.663C392.1 475.453 389.777 476.181 387.47 476.986C389.777 476.227 392.1 475.453 394.407 474.663Z" stroke="#263238" stroke-miterlimit="10"/>
<path d="M668.33 313.3C654.076 313.3 653.317 324.563 638.304 322.317C623.291 320.07 621.803 285.536 637.56 224.755C637.56 224.755 620.301 237.506 581.273 238.265C542.245 239.024 526.488 234.501 536.249 220.247C546.01 205.992 553.509 194.729 545.251 183.481C536.993 172.232 497.221 173.72 484.531 183.481C471.84 193.241 480.781 204.49 489.783 217.241C498.785 229.992 488.265 237.506 473.267 238.265C458.269 239.024 419.985 239.783 384.707 223.252C382.946 222.417 381.155 221.643 379.364 220.869C375.387 238.736 367.614 275.365 365.96 295.251C363.698 322.271 372.7 329.026 383.963 321.512C395.227 313.998 410.984 293.748 422.991 324.548C434.998 355.349 425.238 374.824 410.984 383.841C396.73 392.858 382.4 362.088 373.428 368.085C365.246 373.549 362.635 439.188 380.29 479.263C385.011 477.745 389.732 476.227 394.437 474.709C435.712 460.44 476.986 453.685 484.5 463.445C492.014 473.206 489.054 471.703 479.248 486.716C469.442 501.729 470.231 514.48 486.747 521.979C503.263 529.478 543.778 528.051 547.467 510.731C551.156 493.411 530.207 483.711 539.968 467.195C549.729 450.679 636.042 474.663 636.042 474.663C636.042 474.663 616.536 408.615 624.035 386.847C631.534 365.079 637.56 370.392 649.568 378.589C661.575 386.786 677.332 386.103 683.343 362.088C689.354 338.074 682.584 313.3 668.33 313.3Z" stroke="#263238" stroke-miterlimit="10"/>
<path d="M623.707 154.131C642.812 145.112 650.989 122.314 641.97 103.208C632.951 84.1032 610.152 75.9266 591.047 84.9453C571.942 93.964 563.765 116.763 572.784 135.868C581.803 154.973 604.602 163.15 623.707 154.131Z" fill="#FFC100" stroke="#263238" stroke-miterlimit="10"/>
<path d="M610.596 150.887C627.876 149.114 640.447 133.667 638.673 116.387C636.899 99.107 621.453 86.5364 604.173 88.31C586.893 90.0835 574.322 105.53 576.096 122.81C577.869 140.09 593.315 152.661 610.596 150.887Z" fill="white" stroke="#263238" stroke-miterlimit="10"/>
<path d="M617.221 140.28C628.646 134.846 633.501 121.179 628.067 109.755C622.633 98.3304 608.966 93.4747 597.542 98.9091C586.117 104.344 581.262 118.01 586.696 129.435C592.131 140.859 605.797 145.715 617.221 140.28Z" fill="#FFC100" stroke="#263238" stroke-miterlimit="10"/>
<path d="M621.833 119.573C621.833 116.712 620.985 113.915 619.395 111.536C617.806 109.157 615.546 107.303 612.903 106.208C610.26 105.113 607.351 104.826 604.545 105.384C601.738 105.943 599.161 107.32 597.138 109.344C595.114 111.367 593.737 113.944 593.178 116.751C592.62 119.557 592.907 122.466 594.002 125.109C595.097 127.753 596.951 130.012 599.33 131.601C601.709 133.191 604.506 134.04 607.367 134.04C609.267 134.042 611.149 133.669 612.905 132.942C614.661 132.216 616.257 131.151 617.601 129.807C618.945 128.463 620.01 126.868 620.736 125.111C621.463 123.355 621.835 121.473 621.833 119.573Z" fill="white" stroke="#263238" stroke-miterlimit="10"/>
<path d="M614.077 119.573C614.08 118.245 613.689 116.947 612.953 115.841C612.218 114.736 611.171 113.873 609.945 113.363C608.719 112.853 607.37 112.718 606.067 112.975C604.765 113.232 603.568 113.87 602.628 114.808C601.688 115.746 601.048 116.941 600.788 118.243C600.527 119.545 600.659 120.895 601.167 122.122C601.674 123.349 602.534 124.398 603.638 125.135C604.742 125.873 606.039 126.267 607.367 126.267C609.144 126.267 610.848 125.562 612.106 124.307C613.364 123.052 614.073 121.35 614.077 119.573Z" fill="#FFC100" stroke="#263238" stroke-miterlimit="10"/>
<path d="M610.145 109.083L607.382 119.573L617.28 121.744L610.145 109.083Z" fill="#263238" stroke="#263238" stroke-miterlimit="10"/>
<path d="M614.365 114.928L657.886 91.2168" stroke="#263238" stroke-width="2" stroke-miterlimit="10"/>
<path d="M643.92 99.0191L644.573 87.6493L665.021 75.9607V88.9396L643.92 99.0191Z" fill="#263238" stroke="#263238" stroke-miterlimit="10"/>
<path d="M673.795 95.1179L664.838 88.5146L643.829 99.5505L653.954 105.41L673.795 95.1179Z" fill="#263238" stroke="#263238" stroke-miterlimit="10"/>
<path d="M406.839 121.895H391.629V158.115H406.839V121.895Z" fill="#FFC100" stroke="#263238" stroke-miterlimit="10"/>
<path d="M429.26 110.92H414.05V158.115H429.26V110.92Z" fill="#FFC100" stroke="#263238" stroke-miterlimit="10"/>
<path d="M451.681 121.895H436.471V158.115H451.681V121.895Z" fill="#FFC100" stroke="#263238" stroke-miterlimit="10"/>
<path d="M474.117 108.537H458.907V158.115H474.117V108.537Z" fill="#FFC100" stroke="#263238" stroke-miterlimit="10"/>
<path d="M496.538 90.397H481.328V158.115H496.538V90.397Z" fill="#FFC100" stroke="#263238" stroke-miterlimit="10"/>
<path d="M476.349 61.7067L482.284 64.2417L441.92 102.981L422.642 92.4614L392.1 111.026V116.628L422.763 97.9869L442.71 108.871L485.593 67.7028L487.885 73.7292L496.371 54.0408L476.349 61.7067Z" fill="#263238" stroke="#263238" stroke-linecap="round" stroke-linejoin="round"/>
<path d="M299.26 156.595C319.828 151.767 332.588 131.179 327.76 110.611C322.932 90.0436 302.344 77.2838 281.777 82.1118C261.209 86.9397 248.449 107.527 253.277 128.095C258.105 148.663 278.692 161.422 299.26 156.595Z" fill="white" stroke="#263238" stroke-miterlimit="10"/>
<path d="M298.08 152.514C316.388 148.335 327.842 130.105 323.662 111.796C319.482 93.4877 301.252 82.0342 282.944 86.2139C264.635 90.3936 253.182 108.624 257.362 126.932C261.541 145.241 279.772 156.694 298.08 152.514Z" fill="#FFC100" stroke="#263238" stroke-miterlimit="10"/>
<path d="M295.193 149.863C311.937 147.268 323.406 131.591 320.811 114.847C318.216 98.1036 302.539 86.634 285.796 89.229C269.052 91.824 257.583 107.501 260.178 124.245C262.773 140.988 278.45 152.458 295.193 149.863Z" fill="white" stroke="#263238" stroke-miterlimit="10"/>
<path d="M290.044 145.819V140.946C288.531 140.994 287.025 140.711 285.633 140.116C284.24 139.52 282.995 138.628 281.984 137.5C280.193 135.335 279.231 132.101 279.1 127.8L286.492 126.54C286.517 128.018 286.7 129.489 287.039 130.927C287.237 131.926 287.717 132.848 288.42 133.584C288.728 133.875 289.09 134.101 289.486 134.25C289.883 134.398 290.305 134.466 290.727 134.449C291.158 134.499 291.593 134.427 291.985 134.242C292.377 134.057 292.709 133.766 292.944 133.402C293.361 132.667 293.57 131.833 293.551 130.988C293.621 129.38 293.191 127.789 292.321 126.434C291.358 125.076 290.22 123.851 288.936 122.791L284.489 118.981C283.52 118.081 282.612 117.117 281.771 116.097C280.953 115.091 280.307 113.958 279.859 112.742C279.357 111.309 279.115 109.797 279.145 108.279C279.074 106.889 279.287 105.5 279.769 104.195C280.252 102.891 280.995 101.698 281.953 100.689C284.011 98.805 286.679 97.727 289.468 97.6528V92.856H291.987V97.5314C293.614 97.5564 295.207 97.9952 296.617 98.8065C297.751 99.5264 298.681 100.525 299.319 101.706C299.958 102.87 300.418 104.124 300.686 105.425C300.956 106.716 301.129 108.025 301.202 109.341L293.718 110.434C293.701 109.284 293.594 108.137 293.399 107.004C293.292 106.156 292.968 105.351 292.458 104.666C292.197 104.378 291.87 104.157 291.506 104.022C291.141 103.887 290.749 103.843 290.363 103.892C289.925 103.885 289.492 103.987 289.102 104.188C288.713 104.39 288.38 104.684 288.132 105.045C287.631 105.767 287.365 106.626 287.373 107.505C287.304 108.889 287.711 110.255 288.526 111.376C289.324 112.391 290.202 113.34 291.153 114.214L295.494 117.979C296.646 119.03 297.717 120.166 298.697 121.379C299.675 122.613 300.468 123.984 301.05 125.447C301.671 127.075 301.975 128.806 301.946 130.548C301.969 132.299 301.578 134.031 300.807 135.603C300.058 137.083 298.925 138.336 297.528 139.231C296.022 140.194 294.301 140.767 292.519 140.901V145.819H290.044Z" fill="#263238"/>
<path d="M166.54 89.7441H95.5127V156.521H166.54V89.7441Z" fill="white" stroke="#263238" stroke-miterlimit="10"/>
<path d="M166.54 89.7441H95.5127V106.913H166.54V89.7441Z" fill="#FFC100" stroke="#263238" stroke-linecap="round" stroke-linejoin="round"/>
<path d="M109.782 116.446H101.281V124.946H109.782V116.446Z" fill="#FFC100" stroke="#263238" stroke-linecap="round" stroke-linejoin="round"/>
<path d="M122.533 116.446H114.032V124.946H122.533V116.446Z" fill="#FFC100" stroke="#263238" stroke-linecap="round" stroke-linejoin="round"/>
<path d="M135.269 116.446H126.769V124.946H135.269V116.446Z" fill="#FFC100" stroke="#263238" stroke-linecap="round" stroke-linejoin="round"/>
<path d="M148.02 116.446H139.52V124.946H148.02V116.446Z" fill="#FFC100" stroke="#263238" stroke-linecap="round" stroke-linejoin="round"/>
<path d="M160.771 116.446H152.271V124.946H160.771V116.446Z" fill="#FFC100" stroke="#263238" stroke-linecap="round" stroke-linejoin="round"/>
<path d="M109.782 129.804H101.281V138.305H109.782V129.804Z" fill="#FFC100" stroke="#263238" stroke-linecap="round" stroke-linejoin="round"/>
<path d="M122.533 129.804H114.032V138.305H122.533V129.804Z" fill="#FFC100" stroke="#263238" stroke-linecap="round" stroke-linejoin="round"/>
<path d="M135.269 129.804H126.769V138.305H135.269V129.804Z" fill="#FFC100" stroke="#263238" stroke-linecap="round" stroke-linejoin="round"/>
<path d="M148.02 129.804H139.52V138.305H148.02V129.804Z" fill="#FFC100" stroke="#263238" stroke-linecap="round" stroke-linejoin="round"/>
<path d="M160.771 129.804H152.271V138.305H160.771V129.804Z" fill="#FFC100" stroke="#263238" stroke-linecap="round" stroke-linejoin="round"/>
<path d="M109.782 143.162H101.281V151.663H109.782V143.162Z" fill="#FFC100" stroke="#263238" stroke-linecap="round" stroke-linejoin="round"/>
<path d="M122.533 143.162H114.032V151.663H122.533V143.162Z" fill="#FFC100" stroke="#263238" stroke-linecap="round" stroke-linejoin="round"/>
<path d="M135.269 143.162H126.769V151.663H135.269V143.162Z" fill="#FFC100" stroke="#263238" stroke-linecap="round" stroke-linejoin="round"/>
<path d="M148.02 143.162H139.52V151.663H148.02V143.162Z" fill="#FFC100" stroke="#263238" stroke-linecap="round" stroke-linejoin="round"/>
<path d="M160.771 143.162H152.271V151.663H160.771V143.162Z" fill="#FFC100" stroke="#263238" stroke-linecap="round" stroke-linejoin="round"/>
<path d="M111.3 78.8145H105.228V95.2089H111.3V78.8145Z" fill="#263238"/>
<path d="M126.48 78.8145H120.408V95.2089H126.48V78.8145Z" fill="#263238"/>
<path d="M141.645 78.8145H135.573V95.2089H141.645V78.8145Z" fill="#263238"/>
<path d="M156.825 78.8145H150.753V95.2089H156.825V78.8145Z" fill="#263238"/>
<path d="M33.7451 588.559C37.0391 590.001 45.0997 589.819 45.0997 589.819C45.0997 589.819 43.3692 584.551 43.2174 584.233C41.4413 580.529 35.8551 574.426 31.3011 575.034C30.5481 575.157 29.8295 575.438 29.1922 575.858C28.5549 576.277 28.0131 576.826 27.6021 577.469C27.1911 578.112 26.9201 578.835 26.8068 579.589C26.6935 580.344 26.7404 581.114 26.9445 581.849C27.7035 584.992 30.9368 587.345 33.7451 588.559Z" fill="#FFC100"/>
<path d="M36.523 611.921C39.9385 612.407 47.149 610.327 47.7106 610.16C48.8901 614.276 50.3457 618.308 52.0673 622.228C53.054 624.52 54.1318 626.782 55.2247 629.074C54.572 628.103 53.98 627.253 53.8737 627.146C51.202 624.035 44.1889 619.556 39.9688 621.424C39.2743 621.739 38.6542 622.197 38.149 622.769C37.6438 623.34 37.2649 624.012 37.0371 624.739C36.8093 625.467 36.7377 626.235 36.827 626.993C36.9162 627.75 37.1644 628.48 37.5552 629.135C39.0732 631.974 42.853 633.385 45.889 633.826C48.925 634.266 55.1336 632.626 56.7579 632.156C57.1829 633.021 57.608 633.902 58.0482 634.767C60.1279 638.911 62.2227 643.04 64.1202 647.154C64.8033 648.596 65.4257 650.053 66.0481 651.51C65.456 650.645 64.9703 649.992 64.8792 649.841C62.1923 646.805 55.1792 642.326 50.9591 644.118C50.2684 644.439 49.6528 644.902 49.152 645.476C48.6512 646.051 48.2764 646.724 48.0519 647.452C47.8273 648.18 47.7579 648.947 47.8481 649.704C47.9384 650.46 48.1863 651.189 48.5759 651.844C50.0939 654.683 53.8889 656.079 56.9097 656.52C59.9305 656.96 65.5623 655.472 67.5357 655.002C68.1277 656.52 68.7197 658.038 69.2359 659.556C69.5546 660.573 69.9493 661.544 70.2074 662.592C70.4654 663.639 70.7842 664.626 71.0575 665.628C71.528 667.586 72.029 669.605 72.4388 671.533C72.7424 672.869 73.0005 674.159 73.2586 675.434C72.5906 673.992 71.2396 671.184 71.103 670.956C68.9171 667.48 62.6629 662.06 58.2152 663.184C57.4936 663.394 56.8234 663.752 56.2468 664.234C55.6701 664.717 55.1995 665.313 54.8644 665.986C54.5294 666.659 54.3372 667.394 54.2999 668.145C54.2627 668.896 54.3811 669.646 54.6479 670.349C55.756 673.385 59.2019 675.358 62.2379 676.254C65.456 677.225 72.5906 676.33 73.4863 676.254C73.9113 678.394 74.306 680.474 74.6551 682.432C75.4141 686.789 75.991 690.675 76.4312 693.969H79.4672C78.9359 690.553 78.2528 686.5 77.342 681.946C76.9169 679.775 76.416 677.468 75.824 675.1C77.9759 674.239 80.0744 673.251 82.1085 672.14C84.4614 674.69 90.4727 677.665 91.2165 678.045C90.3968 680.064 89.5771 682.022 88.7725 683.844C87.1027 687.684 85.524 691.085 84.1274 693.969H87.3911C88.5904 691.297 89.911 688.261 91.2772 684.861C92.1273 682.811 92.9774 680.61 93.8426 678.349C94.7079 678.531 101.767 679.958 105.061 679.214C108.097 678.546 111.664 676.861 113.015 673.901C113.35 673.214 113.538 672.464 113.565 671.701C113.592 670.937 113.457 670.176 113.171 669.467C112.885 668.759 112.453 668.118 111.903 667.588C111.353 667.057 110.697 666.648 109.979 666.387C105.622 664.869 98.9887 669.878 96.5447 673.172C96.4081 673.369 95.0267 675.646 94.2677 677.104C94.6168 676.178 94.966 675.282 95.2999 674.326C95.9982 672.428 96.6358 670.516 97.334 668.466L98.2448 665.43C98.5636 664.413 98.7761 663.32 99.0646 662.243C99.6566 659.768 100.127 657.218 100.583 654.653C102.252 655.26 108.173 657.324 111.209 657.097C114.245 656.869 118.1 655.761 119.861 653.044C120.302 652.42 120.605 651.71 120.752 650.961C120.899 650.212 120.887 649.44 120.715 648.696C120.543 647.953 120.215 647.253 119.754 646.645C119.293 646.036 118.709 645.532 118.04 645.165C113.956 643.07 106.639 646.941 103.74 649.841C103.558 650.023 101.706 652.33 100.704 653.62C100.947 652.102 101.205 650.584 101.402 648.945C101.964 644.391 102.389 639.761 102.92 635.146C103.057 633.735 103.209 632.323 103.36 630.911C103.953 631.139 110.951 633.735 114.381 633.507C117.417 633.279 121.258 632.171 123.034 629.454C123.472 628.829 123.774 628.12 123.919 627.371C124.065 626.622 124.052 625.852 123.88 625.108C123.708 624.365 123.382 623.667 122.922 623.058C122.462 622.449 121.88 621.944 121.212 621.575C117.129 619.465 109.812 623.336 106.897 626.236C106.685 626.448 104.028 629.788 103.391 630.668C103.71 627.556 104.074 624.475 104.545 621.439C105.169 617.339 106.051 613.283 107.186 609.295C107.459 609.401 114.776 612.149 118.267 611.906C121.303 611.693 125.159 610.57 126.92 607.853C127.358 607.228 127.66 606.519 127.805 605.77C127.951 605.021 127.938 604.25 127.766 603.507C127.594 602.764 127.268 602.065 126.808 601.457C126.349 600.848 125.766 600.343 125.098 599.974C121.015 597.864 113.698 601.75 110.799 604.634C110.571 604.862 107.763 608.445 107.231 609.188C107.231 608.961 107.353 608.718 107.414 608.49C108.671 604.529 110.281 600.688 112.226 597.014C113.258 594.965 114.381 593.067 115.504 591.261C116.81 591.914 122.791 594.813 125.994 594.95C129.197 595.086 132.977 594.373 135.102 591.914C135.607 591.341 135.986 590.669 136.214 589.94C136.441 589.211 136.512 588.443 136.422 587.684C136.332 586.926 136.082 586.196 135.69 585.541C135.298 584.886 134.771 584.321 134.146 583.883C130.32 581.333 122.624 584.4 119.421 586.919C119.239 587.056 117.63 588.665 116.476 589.849C116.992 589.045 117.508 588.195 117.994 587.42C119.907 584.536 121.85 582.001 123.58 579.83C124.582 578.57 125.508 577.462 126.389 576.415C127.998 576.415 134.495 576.187 137.333 574.897C140.172 573.607 143.284 571.178 143.952 568.005C144.136 567.264 144.161 566.492 144.027 565.74C143.892 564.987 143.6 564.272 143.17 563.641C142.741 563.009 142.183 562.475 141.533 562.073C140.882 561.672 140.155 561.412 139.398 561.311C134.844 560.825 129.409 567.079 127.74 570.829C127.603 571.147 125.933 576.476 126.009 576.476H125.994C125.129 577.462 124.203 578.525 123.231 579.709C121.44 581.895 119.451 584.4 117.463 587.299C115.248 590.356 113.22 593.545 111.391 596.847C109.346 600.522 107.634 604.373 106.275 608.354V608.505C106.275 607.154 106.275 603.39 106.275 603.101C105.744 599.033 102.328 591.489 97.8198 590.654C97.0656 590.536 96.295 590.578 95.5581 590.777C94.8213 590.977 94.1347 591.329 93.5433 591.812C92.9518 592.295 92.4686 592.897 92.1253 593.578C91.7819 594.26 91.5861 595.007 91.5505 595.769C91.2924 599.003 93.6301 602.236 95.9071 604.27C98.4877 606.578 105.638 608.824 106.214 608.976C104.925 613.063 103.911 617.232 103.178 621.454C102.738 623.913 102.374 626.403 102.04 628.892C102.04 627.738 102.04 626.691 102.04 626.554C101.509 622.486 98.093 614.942 93.5846 614.107C92.8316 613.989 92.0622 614.03 91.3263 614.229C90.5905 614.428 89.9047 614.779 89.3134 615.26C88.7222 615.741 88.2388 616.341 87.8945 617.021C87.5502 617.701 87.3529 618.446 87.3152 619.207C87.0572 622.441 89.3949 625.674 91.6719 627.723C93.9489 629.773 100.051 631.807 101.66 632.277L101.296 635.161C100.75 639.715 100.218 644.361 99.5655 648.823C99.3378 650.341 99.0494 651.951 98.761 653.514C98.761 652.482 98.761 651.601 98.761 651.48C98.2297 647.412 94.8293 639.852 90.3057 639.017C89.5518 638.902 88.7821 638.945 88.0462 639.146C87.3104 639.347 86.6248 639.699 86.0339 640.181C85.443 640.664 84.9599 641.264 84.6158 641.945C84.2717 642.626 84.0743 643.371 84.0364 644.133C83.7783 647.366 86.116 650.6 88.4082 652.634C90.7004 654.668 96.1804 656.535 98.093 657.188C97.7591 658.706 97.4251 660.345 97.0304 661.878C96.742 662.895 96.5295 663.912 96.1804 664.914C95.8312 665.916 95.5276 666.948 95.2088 667.95C94.5106 669.848 93.8123 671.806 93.0988 673.643L91.5808 677.347C91.8237 675.829 92.2487 672.686 92.2487 672.413C92.1932 668.808 91.2216 665.277 89.4253 662.152C89.4554 661.752 89.4554 661.351 89.4253 660.952C89.3209 660.201 89.0607 659.48 88.6615 658.835C88.2623 658.189 87.7329 657.635 87.107 657.206C86.4812 656.778 85.7727 656.484 85.027 656.345C84.2813 656.206 83.5147 656.224 82.7764 656.398C78.3439 657.582 75.5204 665.37 75.3079 669.468C75.3079 669.711 75.4597 672.352 75.5811 674.022C75.3686 673.051 75.1561 672.125 74.9132 671.123C74.4426 669.165 73.9265 667.222 73.3952 665.127C73.0916 664.125 72.7728 663.108 72.4692 662.091C72.1656 661.074 71.7557 660.026 71.3914 658.979C70.5262 656.58 69.5091 654.197 68.4465 651.814C70.1618 651.404 76.249 649.856 78.6778 647.973C81.1066 646.091 83.6872 643.055 83.672 639.822C83.6914 639.059 83.5503 638.3 83.2578 637.595C82.9653 636.89 82.5279 636.254 81.9741 635.729C81.4203 635.204 80.7623 634.801 80.0428 634.546C79.3233 634.292 78.5583 634.191 77.7974 634.251C73.2434 634.752 69.2662 642.023 68.4465 646.046C68.4465 646.288 68.1277 649.233 68.0063 650.858C67.3535 649.431 66.7008 648.004 66.0025 646.577C63.9532 642.478 61.7673 638.38 59.5966 634.281L57.6232 630.516C58.2455 630.365 65.5016 628.68 68.2492 626.585C70.6931 624.718 73.2586 621.666 73.2434 618.433C73.2627 617.67 73.1216 616.912 72.8291 616.207C72.5366 615.502 72.0993 614.866 71.5454 614.341C70.9916 613.815 70.3336 613.412 69.6141 613.158C68.8946 612.903 68.1296 612.802 67.3687 612.862C62.8147 613.363 58.8376 620.634 58.0178 624.657C58.0178 624.961 57.5624 629.211 57.5321 630.289C56.0141 627.511 54.6782 624.748 53.4031 621.955C51.6302 618.199 50.1088 614.33 48.8491 610.373C49.1375 610.373 56.7275 608.581 59.4751 606.441C61.9039 604.574 64.4845 601.523 64.4542 598.289C64.4757 597.527 64.3366 596.769 64.0458 596.064C63.755 595.359 63.3191 594.723 62.7665 594.197C62.2138 593.672 61.5567 593.269 60.838 593.014C60.1192 592.759 59.3549 592.658 58.5947 592.718C54.0407 593.219 50.0635 600.49 49.2286 604.498C49.2286 604.817 48.758 609.386 48.7429 610.221L48.5 609.522C47.3715 605.525 46.5944 601.436 46.1774 597.303C45.9194 595.026 45.8131 592.824 45.7372 590.699C47.2552 590.517 53.7978 589.637 56.5302 587.982C59.2626 586.327 62.0405 583.641 62.3745 580.392C62.4793 579.636 62.4237 578.867 62.2113 578.134C61.999 577.401 61.6347 576.721 61.142 576.138C60.6494 575.555 60.0396 575.082 59.3522 574.751C58.6649 574.419 57.9154 574.236 57.1526 574.214C52.5986 574.214 47.8321 580.999 46.5266 584.84C46.5266 585.052 45.9953 587.284 45.6917 588.923C45.6917 587.952 45.6917 586.965 45.6917 586.039C45.6917 582.563 45.9194 579.375 46.1319 576.567C46.2685 575.049 46.4203 573.531 46.5873 572.18C47.908 571.269 53.221 567.519 54.8604 564.833C56.4998 562.146 57.7598 558.442 56.5606 555.436C56.3027 554.721 55.8973 554.068 55.3705 553.519C54.8438 552.971 54.2075 552.54 53.5031 552.253C52.7987 551.967 52.0419 551.832 51.2819 551.857C50.5219 551.883 49.7758 552.068 49.092 552.4C45.0086 554.51 43.9308 562.722 44.538 566.76C44.538 567.11 46.1471 572.483 46.2078 572.438H46.2989C46.1167 573.728 45.9346 575.125 45.7828 576.643C45.4943 579.466 45.2059 582.639 45.13 586.13C45.0014 589.886 45.0876 593.647 45.3881 597.394C45.721 601.586 46.4219 605.741 47.4829 609.811V609.963C46.7543 608.824 44.6291 605.727 44.4469 605.5C41.7601 602.464 34.7469 597.986 30.5269 599.777C29.8794 600.104 29.304 600.557 28.8345 601.11C28.365 601.663 28.0108 602.304 27.793 602.996C27.5751 603.687 27.4979 604.416 27.566 605.138C27.634 605.86 27.8459 606.561 28.1891 607.2C29.7527 610.069 33.487 611.465 36.523 611.921Z" fill="#FFC100"/>
<path d="M115.277 590.335C115.277 590.335 116.795 584.976 116.795 584.627C117.372 580.574 116.066 572.392 111.937 570.388C111.242 570.074 110.487 569.91 109.724 569.907C108.96 569.904 108.205 570.063 107.507 570.372C106.809 570.682 106.184 571.135 105.674 571.703C105.163 572.271 104.778 572.94 104.545 573.667C103.437 576.703 104.833 580.453 106.503 583.018C108.446 586.039 115.262 590.335 115.277 590.335Z" fill="#FFC100"/>
<path d="M594.054 588.559C597.348 590.001 605.409 589.819 605.409 589.819C605.409 589.819 603.678 584.551 603.526 584.233C601.75 580.529 596.164 574.426 591.61 575.034C590.857 575.157 590.139 575.438 589.501 575.858C588.864 576.277 588.322 576.826 587.911 577.469C587.5 578.112 587.229 578.835 587.116 579.589C587.003 580.344 587.049 581.114 587.254 581.849C588.013 584.992 591.246 587.345 594.054 588.559Z" fill="#FFC100"/>
<path d="M596.832 611.921C600.248 612.407 607.458 610.327 608.02 610.16C609.206 614.274 610.661 618.305 612.376 622.228C613.363 624.52 614.441 626.782 615.534 629.074C614.881 628.103 614.289 627.253 614.183 627.146C611.511 624.034 604.498 619.556 600.278 621.423C599.583 621.739 598.963 622.197 598.458 622.768C597.953 623.34 597.574 624.011 597.346 624.739C597.118 625.467 597.047 626.235 597.136 626.992C597.225 627.75 597.474 628.48 597.864 629.135C599.382 631.974 603.162 633.385 606.198 633.826C609.234 634.266 615.443 632.626 617.067 632.156C617.492 633.021 617.917 633.901 618.357 634.767C620.437 638.911 622.532 643.04 624.429 647.154C625.112 648.596 625.735 650.053 626.357 651.51C625.765 650.645 625.279 649.992 625.188 649.84C622.502 646.804 615.504 642.326 611.268 644.118C610.575 644.436 609.956 644.897 609.452 645.47C608.948 646.043 608.57 646.716 608.343 647.444C608.115 648.172 608.043 648.941 608.132 649.698C608.22 650.456 608.466 651.187 608.855 651.844C610.373 654.683 614.168 656.079 617.188 656.52C620.209 656.96 625.841 655.472 627.814 655.002C628.406 656.52 629.014 658.038 629.515 659.556C629.833 660.573 630.228 661.544 630.486 662.592C630.744 663.639 631.063 664.626 631.336 665.628C631.807 667.586 632.308 669.605 632.718 671.533C633.021 672.869 633.279 674.159 633.537 675.434C632.869 673.992 631.518 671.184 631.382 670.956C629.196 667.48 622.942 662.06 618.494 663.184C617.761 663.394 617.08 663.756 616.496 664.247C615.911 664.737 615.436 665.344 615.101 666.03C614.767 666.715 614.579 667.463 614.552 668.225C614.524 668.988 614.657 669.747 614.942 670.455C616.05 673.491 619.496 675.464 622.532 676.36C625.75 677.331 632.885 676.436 633.78 676.36C634.205 678.5 634.6 680.58 634.949 682.538C635.708 686.895 636.285 690.781 636.725 694.075H639.761C639.23 690.659 638.547 686.606 637.636 682.052C637.211 679.882 636.71 677.574 636.118 675.206C638.27 674.345 640.368 673.357 642.402 672.246C644.755 674.796 650.767 677.772 651.51 678.151C650.691 680.17 649.871 682.128 649.066 683.95C647.397 687.79 645.818 691.191 644.421 694.075H647.685C648.884 691.403 650.205 688.367 651.571 684.967C652.421 682.918 653.271 680.717 654.137 678.455C655.002 678.637 662.061 680.064 665.355 679.32C668.391 678.652 671.958 676.967 673.309 674.007C673.644 673.32 673.832 672.571 673.859 671.807C673.885 671.043 673.751 670.282 673.465 669.574C673.179 668.865 672.747 668.224 672.197 667.694C671.647 667.163 670.991 666.754 670.273 666.493C665.916 664.975 659.283 669.984 656.839 673.278C656.702 673.476 655.321 675.753 654.562 677.21C654.911 676.284 655.26 675.388 655.609 674.432C656.292 672.535 656.93 670.622 657.628 668.573L658.539 665.537C658.858 664.519 659.07 663.427 659.359 662.349C659.951 659.874 660.421 657.324 660.877 654.759C662.546 655.366 668.467 657.43 671.503 657.203C674.539 656.975 678.394 655.867 680.155 653.15C680.596 652.526 680.899 651.816 681.046 651.067C681.193 650.318 681.181 649.546 681.009 648.803C680.837 648.059 680.509 647.36 680.048 646.751C679.587 646.143 679.003 645.638 678.334 645.271C674.25 643.176 666.933 647.047 664.034 649.947C663.852 650.129 662 652.436 660.998 653.727C661.241 652.209 661.499 650.691 661.696 649.051C662.258 644.497 662.683 639.867 663.138 635.252C663.275 633.841 663.427 632.429 663.579 631.017C664.171 631.245 671.169 633.841 674.599 633.613C677.635 633.385 681.476 632.277 683.252 629.56C683.69 628.936 683.992 628.226 684.137 627.477C684.283 626.729 684.27 625.958 684.098 625.215C683.926 624.471 683.6 623.773 683.14 623.164C682.681 622.555 682.098 622.05 681.43 621.682C677.347 619.572 670.03 623.442 667.116 626.342C666.903 626.554 664.246 629.894 663.609 630.774C663.928 627.662 664.292 624.581 664.763 621.545C665.387 617.445 666.269 613.389 667.404 609.401C667.677 609.507 674.994 612.255 678.485 612.012C681.521 611.799 685.377 610.676 687.138 607.959C687.576 607.334 687.878 606.625 688.023 605.876C688.169 605.128 688.156 604.357 687.984 603.613C687.812 602.87 687.486 602.172 687.026 601.563C686.567 600.954 685.984 600.449 685.316 600.08C681.233 597.97 673.916 601.856 671.017 604.741C670.789 604.968 667.981 608.551 667.449 609.295C667.449 609.067 667.571 608.824 667.632 608.596C668.889 604.635 670.499 600.794 672.444 597.12C673.476 595.071 674.599 593.174 675.723 591.367C677.028 592.02 683.009 594.919 686.212 595.056C689.415 595.192 693.195 594.479 695.32 592.02C695.826 591.448 696.205 590.775 696.432 590.046C696.66 589.317 696.731 588.549 696.64 587.791C696.55 587.032 696.3 586.302 695.908 585.647C695.516 584.992 694.989 584.427 694.364 583.99C690.538 581.439 682.842 584.506 679.639 587.026C679.472 587.162 677.848 588.771 676.694 589.955C677.21 589.151 677.726 588.301 678.212 587.527C680.14 584.642 682.068 582.107 683.798 579.937C684.8 578.677 685.726 577.568 686.607 576.521C688.216 576.521 694.713 576.293 697.551 575.003C700.39 573.713 703.502 571.284 704.17 568.111C704.354 567.37 704.379 566.598 704.245 565.846C704.11 565.094 703.818 564.378 703.389 563.747C702.959 563.115 702.401 562.581 701.751 562.18C701.101 561.778 700.373 561.518 699.616 561.417C695.062 560.931 689.612 567.185 687.942 570.935C687.806 571.254 686.136 576.582 686.212 576.582H686.318C685.453 577.568 684.527 578.631 683.555 579.815C681.764 582.001 679.776 584.506 677.787 587.405C675.598 590.464 673.596 593.653 671.791 596.953C669.746 600.629 668.034 604.479 666.675 608.46C666.682 608.51 666.682 608.561 666.675 608.612C666.675 607.261 666.675 603.496 666.675 603.207C666.144 599.139 662.728 591.595 658.22 590.76C657.466 590.642 656.695 590.684 655.958 590.884C655.221 591.083 654.535 591.436 653.944 591.918C653.352 592.401 652.869 593.003 652.525 593.685C652.182 594.366 651.986 595.113 651.951 595.876C651.693 599.109 654.03 602.342 656.307 604.376C658.888 606.684 666.038 608.93 666.615 609.082C665.325 613.169 664.311 617.338 663.579 621.56C663.138 624.019 662.774 626.509 662.44 628.998C662.44 627.845 662.44 626.797 662.44 626.661C661.909 622.592 658.493 615.048 653.985 614.213C653.232 614.095 652.462 614.137 651.727 614.335C650.991 614.534 650.305 614.885 649.714 615.366C649.122 615.847 648.639 616.447 648.295 617.127C647.95 617.807 647.753 618.552 647.715 619.313C647.457 622.547 649.795 625.78 652.072 627.829C654.349 629.879 660.452 631.913 662.061 632.383C661.954 633.34 661.818 634.296 661.696 635.268C661.15 639.822 660.618 644.467 659.966 648.93C659.738 650.448 659.45 652.057 659.161 653.62C659.161 652.588 659.161 651.708 659.161 651.586C658.63 647.518 655.23 639.958 650.706 639.123C649.952 639.008 649.182 639.052 648.446 639.252C647.711 639.453 647.025 639.805 646.434 640.288C645.843 640.77 645.36 641.371 645.016 642.051C644.672 642.732 644.475 643.477 644.437 644.239C644.179 647.472 646.516 650.706 648.808 652.74C651.101 654.774 656.596 656.641 658.493 657.294C658.159 658.812 657.825 660.451 657.431 661.984C657.142 663.001 656.93 664.019 656.581 665.02C656.231 666.022 655.928 667.055 655.609 668.056C654.911 669.954 654.213 671.912 653.499 673.749L651.981 677.453C652.224 675.935 652.649 672.793 652.649 672.519C652.601 668.914 651.629 665.381 649.825 662.258C649.83 661.857 649.805 661.456 649.75 661.058C649.645 660.307 649.385 659.586 648.986 658.941C648.587 658.296 648.057 657.741 647.431 657.312C646.806 656.884 646.097 656.59 645.351 656.451C644.606 656.312 643.839 656.33 643.101 656.504C638.668 657.689 635.845 665.476 635.632 669.574C635.632 669.817 635.784 672.459 635.905 674.128C635.693 673.157 635.48 672.231 635.238 671.229C634.767 669.271 634.251 667.328 633.72 665.233C633.416 664.231 633.097 663.214 632.794 662.197C632.49 661.18 632.08 660.132 631.716 659.085C630.85 656.687 629.833 654.303 628.771 651.92C630.486 651.51 636.573 649.962 639.002 648.08C641.431 646.197 644.012 643.161 643.996 639.928C644.016 639.165 643.875 638.406 643.582 637.701C643.29 636.996 642.852 636.361 642.298 635.835C641.745 635.31 641.087 634.907 640.367 634.653C639.648 634.398 638.883 634.297 638.122 634.357C633.568 634.858 629.591 642.129 628.771 646.152C628.771 646.395 628.452 649.339 628.331 650.964C627.678 649.537 627.025 648.11 626.327 646.683C624.278 642.584 622.092 638.486 619.921 634.387L617.947 630.623C618.57 630.471 625.826 628.786 628.573 626.691C631.017 624.824 633.583 621.773 633.568 618.539C633.587 617.776 633.446 617.018 633.153 616.313C632.861 615.608 632.424 614.972 631.87 614.447C631.316 613.922 630.658 613.519 629.938 613.264C629.219 613.009 628.454 612.908 627.693 612.968C623.139 613.469 619.162 620.74 618.342 624.763C618.342 625.067 617.887 629.317 617.856 630.395C616.414 627.617 615.003 624.854 613.727 622.061C611.98 618.304 610.484 614.434 609.249 610.479C609.538 610.479 617.128 608.687 619.875 606.547C622.304 604.68 624.885 601.629 624.854 598.395C624.876 597.633 624.737 596.875 624.446 596.17C624.155 595.465 623.719 594.829 623.167 594.304C622.614 593.778 621.957 593.375 621.238 593.12C620.519 592.865 619.755 592.764 618.995 592.824C614.441 593.325 610.464 600.597 609.629 604.604C609.629 604.923 609.158 609.492 609.143 610.327L608.9 609.629C607.772 605.631 606.995 601.542 606.578 597.409C606.335 595.132 606.213 592.931 606.137 590.805C607.655 590.623 614.198 589.743 616.93 588.088C619.663 586.434 622.441 583.747 622.775 580.498C622.88 579.742 622.824 578.973 622.612 578.24C622.399 577.507 622.035 576.827 621.542 576.244C621.05 575.661 620.44 575.189 619.752 574.857C619.065 574.526 618.316 574.343 617.553 574.32C612.999 574.32 608.232 581.105 606.927 584.946C606.927 585.158 606.395 587.39 606.092 589.029C606.092 588.058 606.092 587.071 606.092 586.145C606.092 582.669 606.32 579.481 606.532 576.673C606.669 575.155 606.821 573.637 606.988 572.286C608.308 571.375 613.621 567.626 615.261 564.939C616.9 562.252 618.16 558.548 616.961 555.542C616.703 554.827 616.298 554.174 615.771 553.625C615.244 553.077 614.608 552.646 613.903 552.359C613.199 552.073 612.442 551.938 611.682 551.963C610.922 551.989 610.176 552.174 609.492 552.506C605.409 554.616 604.331 562.829 605.014 566.867C605.014 567.216 606.532 572.589 606.684 572.544H606.76C606.578 573.834 606.396 575.231 606.244 576.749C605.955 579.572 605.667 582.745 605.591 586.236C605.462 589.993 605.549 593.753 605.849 597.5C606.182 601.692 606.883 605.847 607.944 609.917V610.069C607.215 608.93 605.09 605.834 604.908 605.606C602.221 602.57 595.208 598.092 590.988 599.883C590.293 600.2 589.673 600.66 589.167 601.233C588.662 601.805 588.283 602.478 588.055 603.207C587.828 603.936 587.756 604.705 587.845 605.464C587.935 606.222 588.183 606.954 588.574 607.61C590.062 610.069 593.796 611.465 596.832 611.921Z" fill="#FFC100"/>
<path d="M675.586 590.335C675.586 590.335 677.104 584.976 677.104 584.627C677.681 580.574 676.375 572.392 672.246 570.388C671.551 570.074 670.796 569.91 670.033 569.907C669.269 569.904 668.514 570.063 667.816 570.372C667.118 570.682 666.493 571.135 665.982 571.703C665.472 572.271 665.087 572.94 664.854 573.667C663.745 576.703 665.142 580.453 666.812 583.018C668.755 586.039 675.51 590.335 675.586 590.335Z" fill="#FFC100"/>
<path d="M530.283 272.587C530.283 272.587 530.754 255.449 540.636 250.592C550.518 245.734 551.08 261.779 551.08 261.779C551.08 261.779 573.683 247.419 578.586 258.303C583.489 269.187 576.643 274.454 576.643 274.454C576.643 274.454 596.711 273.756 598.107 284.762C599.504 295.767 589.136 301.156 589.136 301.156C589.136 301.156 601.538 311.281 597.181 315.957C592.825 320.632 583.292 320.966 583.292 320.966C583.292 320.966 588.696 331.82 579.269 335.675C569.842 339.531 559.064 332.351 559.064 332.351C559.064 332.351 560.734 337.33 553.66 336.07C546.586 334.81 539.437 331.516 535.05 321.133C530.663 310.75 525 281.346 530.283 272.587Z" fill="#263238" stroke="#263238" stroke-linecap="round" stroke-linejoin="round"/>
<path d="M425.936 603.587C425.936 603.587 420.304 625.082 420.395 627.465C420.486 629.849 418.528 635.253 420.183 636.786C423.28 639.312 426.563 641.6 430.004 643.632C431.407 643.613 432.775 643.197 433.951 642.433C434.331 642.092 434.637 641.675 434.848 641.21C435.06 640.745 435.173 640.242 435.181 639.731C435.181 638.926 432.919 635.556 432.615 634.767C432.312 633.978 436.759 623.701 438.444 618.585C439.706 614.017 440.609 609.358 441.146 604.65L425.936 603.587Z" fill="#BDBDBD" stroke="#263238" stroke-miterlimit="10"/>
<path d="M432.053 618.555C432.053 618.555 428.85 626.145 428.638 627.45C428.425 628.756 424.084 632.399 424.661 635.313C425.237 638.228 431.643 637.454 434.801 628.832" fill="#BDBDBD"/>
<path d="M432.053 618.555C432.053 618.555 428.85 626.145 428.638 627.45C428.425 628.756 424.084 632.399 424.661 635.313C425.237 638.228 431.643 637.454 434.801 628.832" stroke="#263238" stroke-miterlimit="10"/>
<path d="M446.398 486.823C446.398 486.823 443.712 530.662 442.695 534.533C441.677 538.404 429.473 573.758 426.786 584.627C425.138 591.357 423.966 598.195 423.279 605.09L439.659 608.536L448.858 568.127C448.858 568.127 460.88 531.3 458.436 514.04C457.183 503.982 452.996 494.516 446.398 486.823Z" fill="#FFC100" stroke="#263238" stroke-miterlimit="10"/>
<path d="M531.725 693.923C531.922 684.39 532.317 671.533 533.243 664.171C534.761 651.45 540.195 643.587 545.782 627.739C551.368 611.891 551.854 591.064 551.854 591.064L451.818 594.555C451.818 594.555 440.22 637.56 433.192 669.195C431.283 677.31 430.17 685.592 429.867 693.923" fill="#FFC100"/>
<path d="M531.725 693.923C531.922 684.39 532.317 671.533 533.243 664.171C534.761 651.45 540.195 643.587 545.782 627.739C551.368 611.891 551.854 591.064 551.854 591.064L451.818 594.555C451.818 594.555 440.22 637.56 433.192 669.195C431.283 677.31 430.17 685.592 429.867 693.923" stroke="#263238" stroke-miterlimit="10"/>
<path d="M464.918 610.676L548.15 613.014L549.911 606.578L464.918 610.676Z" fill="#263238" stroke="#263238" stroke-linecap="round" stroke-linejoin="round"/>
<path d="M460.713 692.405C460.713 692.405 459.074 640.353 459.028 612.103Z" fill="white"/>
<path d="M460.713 692.405C460.713 692.405 459.074 640.353 459.028 612.103" stroke="#263238" stroke-miterlimit="10"/>
<path d="M524.515 376.707L536.659 384.874C536.659 384.874 551.034 397.716 554.571 408.342C558.108 418.968 555.543 482.071 551.975 502.458C548.408 522.845 557.319 548.241 560.491 562.571C563.664 576.901 565.045 603.557 565.045 603.557C565.045 603.557 567.292 606.684 528.31 608.035C489.327 609.386 462.14 611.42 458.952 612.058C457.026 612.453 455.072 612.701 453.108 612.802L451.59 598.957L447.81 610.358L439.719 608.506C439.719 608.506 444.744 583.732 446.004 574.077C447.264 564.423 455.218 531.573 455.324 519.217C455.431 506.86 445.108 486.974 443.089 474.739C441.07 462.504 445.138 441.526 455.233 425.678C465.328 409.83 472.098 403.697 491.832 387.515C511.566 371.333 524.515 376.707 524.515 376.707Z" fill="#FFC100" stroke="#263238" stroke-miterlimit="10"/>
<path d="M492.879 561.675L533.607 566.29L531.315 555.633L505.904 553.448" stroke="#263238" stroke-miterlimit="10"/>
<path d="M478.641 552.856L476.576 559.838L486.792 560.992" stroke="#263238" stroke-miterlimit="10"/>
<path d="M493.927 483.073C492.013 481.3 490.256 479.365 488.675 477.29" stroke="#263238" stroke-miterlimit="10"/>
<path d="M508.09 495.035C508.09 495.035 503.794 491.786 499.088 487.749" stroke="#263238" stroke-miterlimit="10"/>
<path d="M524.515 376.707C524.515 376.707 511.566 371.318 491.832 387.515C472.098 403.712 465.343 409.86 455.203 425.678C449.145 435.456 445.118 446.355 443.362 457.723C443.605 458.907 443.863 460.106 444.152 461.335C449.799 485.198 456.083 496.735 456.083 496.735C456.083 496.735 467.013 442.36 486.033 420.319C505.054 398.278 536.643 384.874 536.643 384.874L524.515 376.707Z" fill="#FFC100" stroke="#263238" stroke-miterlimit="10"/>
<path d="M477.047 270.644C477.047 270.644 462.793 283.957 461.73 294.447C460.668 304.936 459.56 313.983 457.783 317.368C456.007 320.753 447.051 322.97 450.087 328.085C453.123 333.201 455.962 333.095 455.962 333.095C455.962 333.095 460.516 355.728 463.977 358.901C467.438 362.073 479.688 360.252 479.688 360.252L483.483 387.697C483.483 387.697 457.996 410.3 453.032 441.799C448.068 473.297 453.746 491.27 453.746 491.27C453.746 491.27 457.07 441.647 468.546 423.067C480.022 404.486 506.678 386.893 510.61 383.72C514.541 380.547 524.515 376.677 524.515 376.677C524.515 376.677 519.779 366.051 519.141 361.254C518.503 356.457 518.716 349.398 519.612 347.47C520.507 345.542 536.431 339.759 542.382 321.512C548.332 303.266 539.573 281.726 530.238 272.557C520.902 263.388 488.978 258.834 477.047 270.644Z" fill="#BDBDBD" stroke="#263238" stroke-miterlimit="10"/>
<path d="M542.442 321.543C548.514 303.327 539.634 281.756 530.298 272.587C520.963 263.419 488.994 258.834 477.062 270.644C477.062 270.644 476.303 271.358 475.119 272.587C479.654 271.453 484.379 271.298 488.978 272.132C498.527 273.65 498.314 281.24 495.718 288.511C493.123 295.782 495.081 297.073 499.954 300.655C504.826 304.238 499.832 311.114 503.263 313.846C506.694 316.579 509.487 301.702 516.925 312.42C524.363 323.137 519.369 327.994 514.724 331C512.122 332.737 509.299 334.116 506.329 335.098C506.329 335.098 513.358 343.341 520.295 346.742C523.619 344.267 537.038 337.937 542.442 321.543Z" fill="#263238" stroke="#263238" stroke-linecap="round" stroke-linejoin="round"/>
<path d="M463.688 337.102C463.688 337.102 473.631 336.283 478.231 331.85" stroke="#263238" stroke-miterlimit="10"/>
<path d="M470.003 313.619C470.079 315.972 469.184 317.915 468.015 317.96C466.846 318.006 465.814 316.123 465.723 313.771C465.632 311.418 466.542 309.475 467.711 309.429C468.88 309.383 469.912 311.266 470.003 313.619Z" fill="#263238"/>
<path d="M465.723 304.01C465.723 304.01 468.926 299.699 473.51 304.784" stroke="#263238" stroke-miterlimit="10"/>
<path d="M479.688 360.282L491.544 355.819L483.286 370.65L479.688 360.282Z" fill="#263238" stroke="#263238" stroke-miterlimit="10"/>
<path d="M445.548 578.161L430.004 643.632L443.954 646.881L451.635 599.003L445.548 578.161Z" fill="white" stroke="#263238" stroke-miterlimit="10"/>
<path d="M459.286 421.412C456.301 427.909 454.198 434.775 453.032 441.829C448.068 473.312 453.745 491.301 453.745 491.301C453.745 491.301 457.039 442.345 468.318 423.492C465.238 423.144 462.208 422.446 459.286 421.412Z" fill="white" stroke="#263238" stroke-miterlimit="10"/>
<path d="M507.316 441.844L506.253 497.403L409.025 513.433L411.151 539.619C411.151 539.619 465.115 540.681 490.223 538.541C515.331 536.4 537.281 534.806 540.439 532.135C543.596 529.463 552.75 477.821 556.484 441.495C560.218 405.169 552.75 392.919 537.797 395.014" fill="#FFC100"/>
<path d="M507.316 441.844L506.253 497.403L409.025 513.433L411.151 539.619C411.151 539.619 465.115 540.681 490.223 538.541C515.331 536.4 537.281 534.806 540.439 532.135C543.596 529.463 552.75 477.821 556.484 441.495C560.218 405.169 552.75 392.919 537.797 395.014" stroke="#263238" stroke-miterlimit="10"/>
<path d="M350.855 511.08L343.068 534.7L350.658 538.829C350.658 538.829 360.297 546.298 365.58 550.336C370.862 554.374 374.916 554.374 377.724 553.129C380.532 551.884 393.268 533.85 394.816 530.435C396.365 527.019 388.911 516.773 381.458 512.401C374.005 508.029 367.796 508.059 363.424 509.365C359.286 510.265 355.083 510.839 350.855 511.08Z" fill="white" stroke="#263238" stroke-miterlimit="10"/>
<path d="M409.025 513.433L396.729 512.371C392.872 511.364 388.944 510.649 384.98 510.23C381.777 510.23 377.496 513.433 375.356 515.042C373.215 516.651 349.717 542.29 349.717 542.29C349.717 542.29 351.857 546.556 355.06 545.493C358.263 544.431 364.168 541.744 364.168 541.744C364.168 541.744 357.762 548.165 360.965 551.368C364.168 554.571 369.512 554.571 369.512 554.571L373.261 552.431C374.837 553.674 376.65 554.583 378.589 555.102C381.261 555.634 385.542 554.571 389.215 552.431C392.889 550.29 402.437 539.148 402.437 539.148L410.634 535.975L409.025 513.433Z" fill="#BDBDBD" stroke="#263238" stroke-miterlimit="10"/>
<path d="M355.091 512.097C355.091 512.097 370.635 503.08 377.466 505.57C384.297 508.059 393.329 523.285 390.84 525.471C388.35 527.657 384.312 526.701 382.142 524.53C380.326 522.881 378.347 521.422 376.237 520.173C372.143 522.473 367.556 523.753 362.863 523.907" fill="white"/>
<path d="M355.091 512.097C355.091 512.097 370.635 503.08 377.466 505.57C384.297 508.059 393.329 523.285 390.84 525.471C388.35 527.657 384.312 526.701 382.142 524.53C380.326 522.881 378.347 521.422 376.237 520.173C372.143 522.473 367.556 523.753 362.863 523.907" stroke="#263238" stroke-miterlimit="10"/>
<path d="M401.45 547.391L396.517 544.749C396.119 544.539 395.768 544.252 395.481 543.905C395.195 543.558 394.98 543.158 394.849 542.728C394.718 542.297 394.673 541.846 394.717 541.398C394.761 540.95 394.893 540.516 395.105 540.119C395.317 539.723 395.605 539.373 395.952 539.088C396.3 538.804 396.7 538.59 397.13 538.461C397.56 538.331 398.012 538.287 398.459 538.332C398.906 538.377 399.339 538.51 399.735 538.723L404.668 541.349C405.468 541.777 406.065 542.505 406.33 543.373C406.595 544.24 406.505 545.177 406.08 545.979C405.652 546.779 404.924 547.376 404.057 547.641C403.189 547.905 402.252 547.815 401.45 547.391Z" fill="white" stroke="#263238" stroke-miterlimit="10"/>
<path d="M397.094 552.673L392.16 550.032C391.381 549.604 390.798 548.89 390.534 548.04C390.271 547.191 390.348 546.272 390.749 545.478C391.179 544.701 391.894 544.121 392.744 543.861C393.593 543.6 394.511 543.679 395.303 544.082L400.236 546.708C401.019 547.133 401.604 547.847 401.868 548.698C402.132 549.548 402.053 550.468 401.648 551.262C401.223 552.044 400.509 552.63 399.658 552.894C398.807 553.157 397.887 553.078 397.094 552.673Z" fill="white" stroke="#263238" stroke-miterlimit="10"/>
<path d="M392.115 557.334L387.181 554.693C386.784 554.482 386.432 554.195 386.146 553.848C385.86 553.5 385.646 553.1 385.516 552.669C385.387 552.238 385.343 551.786 385.389 551.339C385.436 550.892 385.57 550.458 385.785 550.063C385.997 549.666 386.285 549.316 386.632 549.032C386.98 548.747 387.38 548.534 387.81 548.404C388.24 548.274 388.691 548.23 389.138 548.275C389.585 548.32 390.019 548.453 390.415 548.666L395.348 551.307C395.744 551.519 396.095 551.807 396.379 552.155C396.664 552.502 396.877 552.903 397.007 553.333C397.137 553.763 397.18 554.214 397.135 554.661C397.09 555.108 396.958 555.542 396.745 555.937C396.533 556.333 396.245 556.684 395.897 556.968C395.55 557.253 395.15 557.466 394.719 557.596C394.289 557.726 393.838 557.769 393.391 557.724C392.944 557.679 392.51 557.547 392.115 557.334Z" fill="white" stroke="#263238" stroke-miterlimit="10"/>
<path d="M381.641 557.561L380.35 556.878C379.953 556.668 379.601 556.381 379.315 556.034C379.029 555.687 378.814 555.287 378.683 554.857C378.552 554.427 378.507 553.975 378.55 553.527C378.594 553.079 378.726 552.645 378.939 552.248C379.367 551.449 380.094 550.851 380.962 550.587C381.83 550.322 382.767 550.412 383.568 550.837L384.859 551.535C385.256 551.746 385.608 552.033 385.894 552.38C386.18 552.727 386.395 553.127 386.526 553.557C386.657 553.987 386.702 554.439 386.659 554.886C386.615 555.334 386.483 555.768 386.27 556.165C386.059 556.561 385.771 556.911 385.423 557.196C385.076 557.481 384.675 557.694 384.245 557.824C383.815 557.953 383.364 557.997 382.917 557.952C382.47 557.907 382.036 557.774 381.641 557.561Z" fill="white" stroke="#263238" stroke-miterlimit="10"/>
<path d="M350.855 511.08L285.612 483.498L288.025 526.716L341.899 539.057L350.855 511.08Z" fill="#263238" stroke="#263238" stroke-linecap="round" stroke-linejoin="round"/>
<path d="M341.899 539.057L350.856 511.08L341.732 507.042L341.55 507.968L333.201 536.947L341.899 539.057Z" fill="white" stroke="#263238" stroke-miterlimit="10"/>
<path d="M248.952 338.21L265.65 345.967C265.65 345.967 272.663 365.838 270.326 366.415C267.988 366.992 250.455 352.981 250.455 352.981L248.952 338.21Z" fill="white" stroke="#263238" stroke-linecap="round" stroke-linejoin="round"/>
<path d="M258.652 334.233L259.821 327.539C259.821 327.539 275.305 328.601 281.498 328.556C287.692 328.51 293.096 327.721 293.05 321.148C293.005 314.575 289.392 292.154 289.392 292.154C289.392 292.154 296.344 290.56 299.031 287.448C301.718 284.337 297.832 280.496 294.325 275.866C290.819 271.236 287.676 266.242 287.266 260.823C286.857 255.403 277.445 237.673 277.445 237.673C277.445 237.673 278.963 234.956 273.908 229.188C268.853 223.419 242.926 222.417 226.334 230.706C209.742 238.994 205.962 250.956 206.038 264.102C206.114 277.247 213.628 295.782 213.628 295.782C213.628 295.782 208.725 315.926 208.346 317.034C207.966 318.142 203.564 326.78 203.564 326.78C203.564 326.78 224.315 341.246 231.89 347.743C239.465 354.24 256.573 365.352 256.679 359.341C256.785 353.33 257.468 339.759 257.468 339.759L258.652 334.233Z" fill="white" stroke="#263238" stroke-linecap="round" stroke-linejoin="round"/>
<path d="M281.528 271.449C281.619 273.695 281.103 275.532 280.359 275.563C279.615 275.593 278.917 273.817 278.841 271.57C278.765 269.324 279.251 267.487 280.01 267.456C280.769 267.426 281.422 269.202 281.528 271.449Z" fill="#263238"/>
<path d="M270.645 264.026C270.645 264.026 274.09 258.197 283.016 261.627" stroke="#263238" stroke-width="2" stroke-linecap="round" stroke-linejoin="round"/>
<path d="M293.05 321.148C293.05 314.56 289.392 292.154 289.392 292.154C289.392 292.154 285.126 289.862 277.005 291.835C268.883 293.809 266.667 307.015 265.119 308.533C263.57 310.051 253.476 300.943 249.559 294.705C245.643 288.466 242.88 277.794 242.455 271.555C242.03 265.316 256.709 262.174 259.001 256.375C261.293 250.576 250.47 244.398 254.25 240.527C258.03 236.656 265.847 238.144 269.718 238.888C272.357 239.244 275.043 238.822 277.445 237.673C277.445 237.673 278.963 234.956 273.908 229.188C268.853 223.419 242.926 222.417 226.334 230.706C209.742 238.994 205.962 250.956 206.038 264.102C206.114 274.728 211.032 288.936 212.884 293.946C214.452 294.623 216.141 294.974 217.848 294.978C219.366 294.583 220.52 289.938 221.264 285.278C222.008 280.617 233.195 275.153 233.195 275.153C233.195 275.153 235.214 289.073 235.229 291.775C235.245 294.477 233.711 308.033 241.18 314.545C247.028 319.392 253.262 323.753 259.821 327.584C259.821 327.584 275.305 328.647 281.498 328.601C287.691 328.556 293.096 327.721 293.05 321.148Z" fill="#263238" stroke="#263238" stroke-linecap="round" stroke-linejoin="round"/>
<path d="M235.579 284.746C235.579 284.746 232.36 266.196 226.956 267.001C221.552 267.806 218.486 274.788 221.249 283.699C224.011 292.61 229.431 291.775 232.512 290.985" fill="white"/>
<path d="M235.579 284.746C235.579 284.746 232.36 266.196 226.956 267.001C221.552 267.806 218.486 274.788 221.249 283.699C224.011 292.61 229.431 291.775 232.512 290.985" stroke="#263238" stroke-linecap="round" stroke-linejoin="round"/>
<path d="M273.574 298.818C273.574 298.818 276.686 302.674 284.807 302.629" stroke="white" stroke-linecap="round" stroke-linejoin="round"/>
<path d="M186.714 693.923H268.686C268.959 689.612 272.147 673.036 272.147 662.167C272.147 649.613 280.784 568.627 280.784 568.627L174.175 567.231L177.667 616.794L186.714 693.923Z" fill="#263238" stroke="#263238" stroke-linecap="round" stroke-linejoin="round"/>
<path d="M197.34 329.603C197.34 329.603 178.654 353.572 173.386 367.007C168.119 380.441 164.035 382.779 165.204 399.72C166.373 416.661 174.57 484.439 174.57 484.439L158.206 572.681C177.52 579.6 197.879 583.153 218.395 583.185C252.277 583.185 266.971 580.271 269.233 579.102C271.494 577.933 292.003 572.681 292.003 572.681C292.003 572.681 292.003 472.766 285.566 438.292C279.13 403.818 270.963 377.572 268.049 371.09C265.134 364.608 255.768 343.63 255.768 343.63L197.34 329.603Z" fill="#263238" stroke="#263238" stroke-linecap="round" stroke-linejoin="round"/>
<path d="M268.094 371.09C265.165 364.669 255.814 343.63 255.814 343.63L197.34 329.603C197.34 329.603 193.394 334.673 188.612 341.459C201.348 348.852 232.877 367.128 234.744 367.584C237.082 368.176 248.77 367.007 248.77 367.007L243.548 373.428C243.548 373.428 257.575 384.54 262.25 389.2C264.709 391.659 271.844 398.156 278.068 403.773C273.832 386.984 269.916 375.128 268.094 371.09Z" fill="#263238" stroke="#263238" stroke-linecap="round" stroke-linejoin="round"/>
<path d="M241.21 356.487L261.081 372.259L277.43 401.481L266.925 358.825L245.309 346.559L241.21 356.487Z" fill="white" stroke="#263238" stroke-linecap="round" stroke-linejoin="round"/>
<path d="M201.484 318.507L262.659 346.074V367.69L192.71 331.941L201.484 318.507Z" fill="white" stroke="#263238" stroke-linecap="round" stroke-linejoin="round"/>
<path d="M282.379 539.634H176.665V625.173H282.379V539.634Z" fill="#FFC100" stroke="#263238" stroke-miterlimit="10"/>
<path d="M236.003 580.407C236.003 580.407 243.867 590.654 246.948 591.686C249.543 592.752 251.688 594.683 253.02 597.151C254.386 599.2 256.056 614.577 257.119 615.61C258.181 616.642 258.151 619.025 254.386 617.31C250.622 615.594 248.314 609.72 248.314 609.72L249.681 623.382C249.681 623.382 252.717 624.065 250.364 625.78C248.011 627.496 245.916 629.879 243.867 628.816C242.043 627.73 240.33 626.47 238.751 625.052C236.31 625.871 233.71 626.105 231.161 625.735C227.412 625.052 228.125 626.418 224.679 624.019C221.233 621.621 221.248 624.369 219.548 619.921C216.9 611.962 214.73 603.851 213.051 595.633C212.368 591.185 211.685 585.007 211.685 585.007L236.003 580.407Z" fill="white" stroke="#263238" stroke-linecap="round" stroke-linejoin="round"/>
<path d="M237.385 573.91L239.768 584.506L210.38 588.604L209.014 578.009L237.385 573.91Z" fill="white" stroke="#263238" stroke-linecap="round" stroke-linejoin="round"/>
<path d="M199.723 350.658C199.723 350.658 179.276 357.079 178.699 366.43C178.122 375.781 171.337 489.191 174.267 496.781C177.196 504.371 205.932 581.288 205.932 581.288L239.237 577.204C239.237 577.204 222.175 488.007 221.628 486.246C221.082 484.485 233.074 385.117 233.074 385.117" fill="#263238"/>
<path d="M199.723 350.658C199.723 350.658 179.276 357.079 178.699 366.43C178.122 375.781 171.337 489.191 174.267 496.781C177.196 504.371 205.932 581.288 205.932 581.288L239.237 577.204C239.237 577.204 222.175 488.007 221.628 486.246C221.082 484.485 233.074 385.117 233.074 385.117" stroke="#263238" stroke-linecap="round" stroke-linejoin="round"/>
<path d="M229.112 413.655L221.583 486.246L228.763 531.346" stroke="#878787" stroke-linecap="round" stroke-linejoin="round"/>
<path d="M230.265 402.543L229.871 406.399" stroke="#878787" stroke-linecap="round" stroke-linejoin="round"/>
<path d="M176.346 391.31L174.1 459.468" stroke="#878787" stroke-linecap="round" stroke-linejoin="round"/>
<path d="M252.732 519.444L275.198 518.625L277.217 526.716L239.996 529.099" stroke="#878787" stroke-linecap="round" stroke-linejoin="round"/>
<path d="M234.015 520.112L245.977 519.687" stroke="#878787" stroke-linecap="round" stroke-linejoin="round"/>
<path d="M193.576 343.387L234.789 367.584L248.816 367.007L243.548 373.428L270.705 395.059" stroke="#878787" stroke-linecap="round" stroke-linejoin="round"/>
<path d="M17.4268 693.923H710.379" stroke="#263238" stroke-miterlimit="10"/>
<path d="M213.264 68.3403V170.942" stroke="#263238" stroke-miterlimit="10"/>
<path d="M370.862 68.3403V170.942" stroke="#263238" stroke-miterlimit="10"/>
<path d="M528.461 68.3403V170.942" stroke="#263238" stroke-miterlimit="10"/>
</svg>
